<?xml version="1.0" encoding="UTF-8"?>
<svg width="752pt" height="752pt" version="1.1" viewBox="0 0 752 752" xmlns="http://www.w3.org/2000/svg">
 <g fill-rule="evenodd">
  <path d="m248.18 349.13c28.957 0 52.441-23.477 52.441-52.43 0-28.957-23.484-52.441-52.441-52.441-28.965 0-52.441 23.484-52.441 52.441s23.477 52.43 52.441 52.43z"/>
  <path d="m293.7 343.27c-11.793 11.234-27.848 18.152-45.523 18.152-17.684 0-33.738-6.918-45.531-18.152l-6.0312-1.2578c-1.9766-0.25-3.8789-0.25-5.6602 0.027343-1.7695 0.26953-3.4023 0.82031-5.3242 1.5-1.9102 0.67969-4.0938 1.5-6.8242 3.1406-2.7305 1.6328-6.0117 4.0938-9.1562 8.1953-3.1328 4.082-6.1328 9.8359-8.875 16.66-2.7305 6.8242-5.1836 14.738-6.5547 22.395-1.3594 7.6445-1.6328 15.02-1.7695 20.613-0.14062 5.6016-0.14062 9.4336 0.41016 13.117 0.53906 3.6914 1.6406 7.2344 4.1016 10.777 2.4531 3.5625 6.2734 7.1133 10.785 9.8359 4.4922 2.7305 9.6875 4.6445 16.801 5.6016 7.0938 0.94922 16.102 0.94922 27.027 0.94922h41.348c1.5742-5.7969 4.4102-11.793 6.4805-16.969 3.3672-8.4102 8.8477-15.176 12.715-20.203 3.8594-5.0547 7.8945-8.0742 11.254-10.086 3.3555-2.0234 6.0508-3.0312 8.3984-3.8594 2.3594-0.84766 4.3711-1.5195 6.5547-1.8555 2.1914-0.33594 4.5391-0.33594 6.9648-0.027343l7.4219 1.5391c-9.5547-11.242-15.316-25.824-15.316-41.746 0-7.0859 1.1367-13.91 3.2539-20.277l-6.9453 1.9297z"/>
  <path d="m372.9 292.25c-35.633 0-64.523 28.891-64.523 64.523 0 35.641 28.891 64.523 64.523 64.523 35.633 0 64.523-28.883 64.523-64.523 0-35.633-28.891-64.523-64.523-64.523z"/>
  <path d="m372.9 436.42c-21.758 0-41.504-8.5117-56.02-22.348l-7.4219-1.5391c-2.4258-0.30859-4.7734-0.30859-6.9648 0.027344-2.1797 0.33594-4.1953 1.0078-6.5547 1.8555-2.3477 0.82812-5.0352 1.8359-8.3984 3.8594-3.3555 2.0156-7.3945 5.0352-11.254 10.086-3.8672 5.0352-7.5625 12.09-10.926 20.5-3.3555 8.3906-6.3867 18.141-8.0625 27.551-1.6797 9.4062-2.0156 18.488-2.1797 25.367-0.16797 6.8906-0.16797 11.598 0.50391 16.137 0.67188 4.5391 2.0156 8.9023 5.043 13.266 3.0195 4.3711 7.7305 8.7461 13.266 12.102 5.5469 3.3672 11.934 5.7148 20.68 6.8906 8.7266 1.1758 19.82 1.1758 33.266 1.1758h90.062c13.445 0 24.539 0 33.266-1.1758 8.7461-1.1758 15.133-3.5234 20.68-6.8906 5.5391-3.3555 10.246-7.7305 13.266-12.102 3.0312-4.3633 4.3711-8.7266 5.043-13.266 0.67188-4.5391 0.67188-9.25 0.50391-16.137-0.16797-6.8789-0.50391-15.961-2.1797-25.367-1.6797-9.4062-4.707-19.16-8.0625-27.551-3.3672-8.4102-7.0586-15.465-10.926-20.5-3.8594-5.0547-7.8945-8.0742-11.254-10.086-3.3672-2.0234-6.0508-3.0312-8.3984-3.8594-2.3594-0.84766-4.3711-1.5195-6.5547-1.8555-2.1914-0.33594-4.5391-0.33594-6.9648-0.027344l-7.4219 1.5391c-14.516 13.836-34.262 22.348-56.02 22.348z"/>
  <path d="m462.43 407.57c3.3555 2.0156 7.3945 5.0352 11.254 10.086 3.8672 5.0234 9.3516 11.793 12.715 20.203 2.0703 5.1758 4.9023 11.168 6.4805 16.969h41.348c10.926 0 19.934 0 27.027-0.94922 7.1133-0.96094 12.305-2.8711 16.801-5.6016 4.5117-2.7227 8.3359-6.2734 10.785-9.8359 2.4609-3.543 3.5625-7.0859 4.1016-10.777 0.55078-3.6836 0.55078-7.5156 0.41016-13.117-0.14062-5.5938-0.41016-12.969-1.7695-20.613-1.3711-7.6523-3.8242-15.57-6.5547-22.395-2.7422-6.8242-5.7422-12.578-8.875-16.66-3.1406-4.1016-6.4219-6.5625-9.1562-8.1953-2.7305-1.6406-4.9141-2.4609-6.8242-3.1406-1.9219-0.67969-3.5508-1.2305-5.3242-1.5-1.7812-0.28125-3.6836-0.28125-5.6602-0.027344l-6.0312 1.2578c-11.793 11.234-27.848 18.152-45.531 18.152-17.676 0-33.73-6.918-45.523-18.152l-6.9453-1.9297c2.1172 6.3672 3.2539 13.191 3.2539 20.277 0 15.922-5.7617 30.504-15.316 41.746l7.4219-1.5391c2.4258-0.30859 4.7734-0.30859 6.9648 0.027344 2.1797 0.33594 4.1953 1.0078 6.5547 1.8555 2.3477 0.82812 5.043 1.8359 8.3984 3.8594z"/>
  <path d="m445.18 296.7c0 28.957 23.484 52.43 52.441 52.43 28.965 0 52.441-23.477 52.441-52.43 0-28.957-23.477-52.441-52.441-52.441-28.957 0-52.441 23.484-52.441 52.441z"/>
 </g>
</svg>
