<?xml version="1.0" standalone="no"?>
<!DOCTYPE svg PUBLIC "-//W3C//DTD SVG 20010904//EN"
 "http://www.w3.org/TR/2001/REC-SVG-20010904/DTD/svg10.dtd">
<svg version="1.0" xmlns="http://www.w3.org/2000/svg"
 width="512.000000pt" height="512.000000pt" viewBox="0 0 512.000000 512.000000"
 preserveAspectRatio="xMidYMid meet">

<g transform="translate(0.000000,512.000000) scale(0.100000,-0.100000)"
fill="#000000" stroke="none">
<path d="M1035 5098 c-50 -18 -104 -68 -135 -122 l-30 -51 0 -2207 0 -2208
-22 -5 c-13 -2 -90 -6 -173 -7 -131 -3 -155 -6 -190 -25 -103 -56 -150 -186
-109 -306 19 -57 98 -132 155 -147 25 -7 234 -10 606 -8 l568 3 36 22 c89 56
128 123 129 221 0 101 -39 169 -125 215 -35 19 -61 23 -205 27 l-165 5 -3 903
-2 902 1558 0 1559 0 62 31 c50 25 70 42 99 87 35 52 37 60 37 131 0 72 -2 80
-40 138 -22 34 -74 106 -115 159 -41 54 -82 108 -90 121 -8 12 -49 66 -90 120
-41 53 -83 109 -92 123 -9 14 -53 72 -97 130 -131 172 -171 226 -171 234 0 4
152 210 339 459 229 306 342 465 350 492 32 117 -14 227 -122 290 l-52 30
-1565 3 c-1225 2 -1566 5 -1572 15 -4 6 -8 21 -8 32 0 44 -54 125 -107 162
-45 31 -61 36 -120 39 -37 2 -81 -1 -98 -8z"/>
</g>
</svg>
